PathFileType	4	(X/Y/Z)	./resultDataOpenSim/trcMotMarkerGrf/sub06/qtm-02-01.trc
DataRate	CameraRate	NumFrames	NumMarkers	Units	OrigDataRate	OrigDataStartFrame	OrigNumFrames
250.000000	250.000000	12	24	m	250.000000	446	509
Frame#	Time	L.Toe.Tip			R.Toe.Tip			L.Ankle.Lat			R.Ankle.Lat			L.Ankle.Med			R.Ankle.Med			L.Heel			R.Heel			L.Knee.Lat			R.Knee.Lat			L.Knee.Med			R.Knee.Med			L.Thigh.Upper			R.Thigh.Upper			L.ASIS			R.ASIS			V.Sacral			L.Acromium			R.Acromium			C7			L.Elbow			R.Elbow			L.Wrist.Lat			R.Wrist.Lat
		X1	Y1	Z1	X2	Y2	Z2	X3	Y3	Z3	X4	Y4	Z4	X5	Y5	Z5	X6	Y6	Z6	X7	Y7	Z7	X8	Y8	Z8	X9	Y9	Z9	X10	Y10	Z10	X11	Y11	Z11	X12	Y12	Z12	X13	Y13	Z13	X14	Y14	Z14	X15	Y15	Z15	X16	Y16	Z16	X17	Y17	Z17	X18	Y18	Z18	X19	Y19	Z19	X20	Y20	Z20	X21	Y21	Z21	X22	Y22	Z22	X23	Y23	Z23	X24	Y24	Z24

446	1.78	1.6965664	0.034001129	-0.034665659	1.3144147	0.092719713	0.123168	1.5707429	0.067210586	-0.059848622	1.2826401	0.22624736	0.15025208	1.5725608	0.082892812	0.026321087	1.3213818	0.22292652	0.071566042	1.4959908	0.040165878	-0.016576935	1.2446207	0.26404395	0.086960884	1.6342893	0.43759009	-0.080692819	1.5968907	0.43368145	0.1935557	1.6026938	0.43761068	0.03670235	1.6007158	0.41343818	0.059331495	1.5565926	0.82477383	-0.15563471	1.5103256	0.78625067	0.17803015	1.6196496	0.86928486	-0.10200988	1.5930896	0.85428994	0.14439718	1.4178364	0.93081764	0.011358964	1.530357	1.3369175	-0.17582031	1.5146655	1.3396338	0.18722861	1.4432054	1.3725952	0.00015270173	1.4650622	1.022754	-0.21883423	1.4692696	1.0205325	0.2570919	1.6015402	0.8211802	-0.25979665	1.663068	0.86817938	0.26469017
447	1.784	1.6965963	0.034003981	-0.034692883	1.3320421	0.092532508	0.12505617	1.5707662	0.067322004	-0.059785815	1.2973146	0.22511513	0.15076893	1.572874	0.083071711	0.026301945	1.3359196	0.22216965	0.072309464	1.4960014	0.040310413	-0.016402375	1.2573718	0.26157809	0.088169756	1.6353531	0.43761087	-0.080457382	1.6084279	0.43674481	0.19376716	1.6037666	0.43757864	0.03698113	1.6128922	0.41634766	0.059524978	1.5617443	0.82533846	-0.15571926	1.5176487	0.78839401	0.17871406	1.6249063	0.87040669	-0.10257904	1.5994026	0.85619093	0.1439343	1.4240004	0.93214495	0.011151721	1.536475	1.3388428	-0.17574082	1.5205551	1.3409802	0.18719709	1.4491369	1.3739676	0.00022325369	1.4734691	1.023703	-0.21937917	1.4723021	1.0222313	0.25654637	1.6141961	0.82412617	-0.25891907	1.663516	0.86674327	0.26563844
448	1.788	1.696625	0.034008403	-0.034720535	1.3498123	0.092272516	0.1269328	1.5707641	0.067431938	-0.059716018	1.3117489	0.2238612	0.1512368	1.5728881	0.08322419	0.026349778	1.3502966	0.22124551	0.072672833	1.496019	0.040462268	-0.016232783	1.2707387	0.25901059	0.088415522	1.6363692	0.43761646	-0.080242275	1.619882	0.4397793	0.19396377	1.6046776	0.4375185	0.037268087	1.6252326	0.41941428	0.059667934	1.5664333	0.82592635	-0.1558385	1.5234587	0.79094803	0.17975785	1.6301367	0.87151329	-0.10310706	1.605764	0.85807784	0.14345881	1.4300254	0.93339796	0.011074915	1.542539	1.3406646	-0.17563445	1.5264668	1.3422616	0.18716019	1.455059	1.3752787	0.00030198601	1.4818578	1.0246404	-0.21993194	1.4758002	1.0239635	0.25610207	1.6268023	0.82715039	-0.25800892	1.663911	0.86537294	0.26660238
449	1.792	1.6966513	0.034014582	-0.0347454	1.3677267	0.091940681	0.12879506	1.5707447	0.067553605	-0.059649751	1.3261497	0.22242863	0.15170957	1.572061	0.083284687	0.026547461	1.3645666	0.22013923	0.072757951	1.4960477	0.040622074	-0.016060664	1.2847013	0.25635182	0.087849286	1.6373551	0.43759843	-0.080042938	1.6312661	0.44279301	0.19413973	1.6053418	0.4374875	0.037604601	1.63734	0.42265526	0.059736416	1.5710606	0.82651288	-0.15591315	1.5280302	0.79379327	0.18099676	1.6353786	0.87259643	-0.10359255	1.6121371	0.85994557	0.14297444	1.4359132	0.93460296	0.011102092	1.548543	1.3423798	-0.17552128	1.5323932	1.3434789	0.187111	1.460962	1.3765239	0.00037240787	1.4902337	1.0255714	-0.22048561	1.479791	1.0258025	0.25573491	1.6390446	0.83029787	-0.25708822	1.6642683	0.86406255	0.26758433
450	1.796	1.6966749	0.034020871	-0.034763506	1.3857698	0.091530009	0.13063671	1.5707238	0.067688504	-0.059588051	1.3406367	0.22078428	0.15218598	1.5701439	0.083215743	0.026932693	1.3789041	0.21882921	0.072841182	1.4960923	0.04079675	-0.015898635	1.2989236	0.25348592	0.087046275	1.6383058	0.4375512	-0.079860843	1.6425761	0.44579153	0.19429101	1.6057408	0.43753163	0.038002817	1.6489161	0.42604636	0.05972227	1.575928	0.82707909	-0.15590969	1.5318362	0.79668958	0.18213278	1.6406654	0.87364248	-0.10402868	1.6184772	0.8617895	0.14247998	1.4416955	0.93576855	0.011182187	1.5545067	1.3440182	-0.17542142	1.5383177	1.3446314	0.18704819	1.4668445	1.3777038	0.00041662905	1.4985911	1.0265002	-0.22103146	1.4837948	1.0277493	0.25537681	1.6508478	0.83356485	-0.25615992	1.6645966	0.86280356	0.26857652
451	1.8	1.6966991	0.034024522	-0.034771581	1.4039578	0.091039335	0.13245034	1.5707135	0.067831343	-0.059528093	1.355229	0.21892004	0.1526493	1.567889	0.083110362	0.027386175	1.3934227	0.21730744	0.073090893	1.4961447	0.041001481	-0.015767245	1.3131333	0.25031252	0.086466019	1.6392014	0.43747042	-0.079698145	1.6537804	0.44876898	0.1944148	1.6061182	0.43764005	0.03840558	1.6600955	0.42949914	0.059649905	1.5809243	0.82763059	-0.1558633	1.5354633	0.79938982	0.18291668	1.6459893	0.87464333	-0.10441942	1.6247545	0.86360801	0.14197409	1.4474063	0.93685881	0.01128786	1.5604517	1.3456015	-0.1753367	1.5442326	1.34572	0.18697757	1.4727129	1.3788206	0.00042691172	1.5069097	1.0274262	-0.22156273	1.4872408	1.0297205	0.25496833	1.6625428	0.83688926	-0.25519291	1.664896	0.86158748	0.26956449
452	1.804	1.696728	0.034022642	-0.034768871	1.4223918	0.09048623	0.13423959	1.5707174	0.06797459	-0.059468734	1.3698935	0.21684889	0.15309979	1.566495	0.083118366	0.027711151	1.4081234	0.21558467	0.073500159	1.4961754	0.041259109	-0.015681744	1.3272727	0.24681925	0.086235473	1.6400487	0.43735459	-0.079547329	1.6648476	0.45170968	0.19451247	1.6068079	0.43775024	0.038730857	1.6711269	0.43290598	0.059562284	1.5857576	0.82816781	-0.15583016	1.5397017	0.80175775	0.18339059	1.6512867	0.87560008	-0.10477925	1.630976	0.86540185	0.14146256	1.4530895	0.93784431	0.011427048	1.5663936	1.3471309	-0.17525355	1.550149	1.3467357	0.18690518	1.4785724	1.3798689	0.00041129667	1.5151741	1.0283379	-0.22207653	1.4900176	1.0315887	0.25449651	1.6745482	0.8402024	-0.2541515	1.6651586	0.86040666	0.27053716
453	1.808	1.6967636	0.034014449	-0.034757445	1.4411603	0.089888408	0.136015	1.5707328	0.068111633	-0.059411063	1.3846027	0.21459646	0.15355499	1.5662865	0.083265324	0.027842718	1.4229609	0.21367689	0.073991588	1.4961541	0.041583599	-0.015637654	1.341386	0.24303829	0.086267945	1.640878	0.43720819	-0.079401747	1.675779	0.45460072	0.19458803	1.6078337	0.43780218	0.0389722	1.6820614	0.43621983	0.059499645	1.5903189	0.82867518	-0.15582807	1.5452517	0.80377383	0.18381698	1.6565098	0.87650907	-0.10511783	1.6371832	0.86717034	0.1409559	1.4588119	0.93873751	0.011629749	1.5723433	1.3485954	-0.17515655	1.5560794	1.3476595	0.18683676	1.4844252	1.3808395	0.00038926157	1.5234045	1.0292126	-0.22258279	1.4925469	1.0332879	0.25399801	1.6868768	0.84349666	-0.25304125	1.6653873	0.85925457	0.27149779
454	1.812	1.6968042	0.034001724	-0.034741375	1.4601428	0.089231836	0.13777818	1.570757	0.068240486	-0.059354696	1.3993556	0.21218679	0.15402915	1.5666923	0.083458733	0.027865154	1.4379033	0.21159206	0.074504486	1.4960912	0.041951469	-0.015600686	1.3554934	0.23899707	0.086439699	1.6417015	0.43703911	-0.079270385	1.6866025	0.45744156	0.19464036	1.6089401	0.43777465	0.039195907	1.6928238	0.43944792	0.059508809	1.5949417	0.82913848	-0.15579114	1.5521272	0.80548222	0.18437412	1.6616905	0.87735292	-0.10543111	1.6434125	0.86890777	0.14046336	1.4646138	0.93957149	0.011934566	1.5783096	1.3499832	-0.1750401	1.5620213	1.3484812	0.18677949	1.490269	1.3817294	0.00038329732	1.5316463	1.0300308	-0.22310117	1.4952756	1.0348517	0.25352507	1.6991812	0.84681641	-0.25190075	1.6656065	0.85812694	0.27245997
455	1.816	1.6968462	0.033986586	-0.034725538	1.4790563	0.088480037	0.13952018	1.5707898	0.068364523	-0.059296973	1.414174	0.20962824	0.15452238	1.5671707	0.083629091	0.027869359	1.4529424	0.20933854	0.075005076	1.4960371	0.042309476	-0.015524565	1.3695795	0.23471565	0.086671753	1.6425079	0.43685691	-0.079170278	1.6973392	0.46023717	0.19466193	1.6099784	0.43770262	0.039444619	1.7033279	0.44259272	0.059631121	1.6000768	0.82955013	-0.15563968	1.5598021	0.80696205	0.18504446	1.666904	0.87811735	-0.1057065	1.6496732	0.87060516	0.13998905	1.4704818	0.94036411	0.012355085	1.5842951	1.3512873	-0.1749109	1.5679613	1.3492073	0.18673902	1.4960968	1.3825422	0.0004060882	1.5399202	1.0307899	-0.2236397	1.4982486	1.0363368	0.25310584	1.7112322	0.85019274	-0.25075019	1.6658394	0.85702291	0.27343067
456	1.82	1.696889	0.033970785	-0.034714185	1.4977231	0.087610874	0.14123432	1.570831	0.068490712	-0.059235765	1.4290855	0.20691305	0.15502813	1.5675469	0.083776139	0.027888447	1.4680805	0.20693937	0.075459668	1.4960319	0.0426217	-0.015389515	1.3837049	0.23022276	0.08693467	1.6432927	0.43667329	-0.079107904	1.7079824	0.46298996	0.19464295	1.6110407	0.43766307	0.039699395	1.7135373	0.44565194	0.059834214	1.6056904	0.82990165	-0.15539574	1.5678245	0.80830517	0.18573257	1.6722272	0.87880159	-0.10593161	1.6559666	0.87225285	0.13953148	1.4763821	0.94110984	0.012851431	1.5902915	1.3525057	-0.17478315	1.5738898	1.3498483	0.18671471	1.5019057	1.3832813	0.00045206064	1.5482086	1.0314975	-0.22419287	1.5012559	1.037755	0.25273946	1.7230728	0.85362132	-0.24958011	1.6660834	0.85594457	0.27440293
457	1.824	1.6969364	0.033956739	-0.034710093	1.5161152	0.086617385	0.14292282	1.5708794	0.068627268	-0.059172081	1.4441084	0.2040312	0.1555384	1.5678358	0.083930223	0.027920251	1.483317	0.20442154	0.075839198	1.4960806	0.042891355	-0.015213989	1.3980829	0.22556121	0.087226215	1.644077	0.43649958	-0.079075126	1.7185147	0.46569775	0.1945729	1.6122776	0.43771064	0.039920878	1.7234991	0.44865438	0.060005835	1.6113656	0.83017982	-0.15514452	1.575984	0.80957474	0.18638042	1.6777278	0.87940531	-0.1060987	1.6622939	0.87384012	0.13908798	1.4822884	0.94179816	0.013353761	1.596286	1.3536413	-0.17466976	1.5798067	1.3504045	0.18669876	1.5077016	1.3839476	0.00050397013	1.5564927	1.0321553	-0.22476041	1.5042307	1.0390825	0.25241673	1.7348152	0.85708346	-0.24837847	1.6663173	0.85489333	0.27536689
